<svg width="33" height="33" viewBox="0 0 48 48" fill="none" xmlns="http://www.w3.org/2000/svg">
<path d="M17 0.4C17 0.07452 18.0772 -0.0124351 19.3961 0.119892C23.2963 0.511211 27.0543 1.85353 30.3337 4.04473C34.2805 6.68188 37.3566 10.4302 39.1731 14.8156C40.9896 19.201 41.4649 24.0266 40.5388 28.6822C39.6128 33.3377 37.327 37.6141 33.9706 40.9706C30.6141 44.327 26.3377 46.6128 21.6822 47.5388C17.0266 48.4649 12.201 47.9896 7.8156 46.1731C3.4302 44.3566 0.68188 41.2805 -1.95527e-05 37.3337C-2.14647e-05 34.0543 1.51121 30.2963 1.89989 26.3961C2.11989 25.0772 3.07452 24 4.4 24V24C5.72548 24 6.78454 25.0787 6.9498 26.3938C7.32038 29.343 8.37231 32.1774 10.0358 34.6669C12.1455 37.8244 15.1441 40.2853 18.6525 41.7385C22.1608 43.1917 26.0213 43.5719 29.7457 42.8311C33.4702 42.0902 36.8913 40.2616 39.5765 37.5765C42.2616 34.8913 44.0902 31.4702 44.8311 27.7457C45.5719 24.0213 45.1917 20.1608 43.7385 16.6525C42.2853 13.1441 39.8244 10.1455 36.6669 8.03578C34.1774 6.37231 31.343 5.32038 28.3938 4.9498C27.0787 4.78454 26 3.72548 26 2.4V2.4Z" fill="#00BDD3"/>
</svg>